<?xml version="1.0" standalone="no"?>
<!DOCTYPE svg PUBLIC "-//W3C//DTD SVG 20010904//EN"
 "http://www.w3.org/TR/2001/REC-SVG-20010904/DTD/svg10.dtd">
<svg version="1.0" xmlns="http://www.w3.org/2000/svg"
 width="560.000000pt" height="560.000000pt" viewBox="0 0 560.000000 560.000000"
 preserveAspectRatio="xMidYMid meet">
<metadata>
Created by potrace 1.11, written by Peter Selinger 2001-2013
</metadata>
<g transform="translate(0.000000,560.000000) scale(0.100000,-0.100000)"
fill="#000000" stroke="none">
<path d="M3702 5350 c-115 -99 -176 -139 -256 -168 -63 -23 -86 -26 -206 -26
-125 -1 -143 2 -240 32 -128 40 -217 49 -346 33 -75 -10 -117 -21 -171 -47
-83 -40 -118 -72 -216 -203 -78 -104 -124 -142 -200 -167 -133 -43 -178 -123
-137 -243 l20 -60 -74 -110 c-83 -123 -127 -221 -162 -359 -27 -108 -33 -156
-34 -295 0 -84 -2 -98 -17 -103 -56 -18 -77 -30 -109 -62 -68 -68 -69 -74 -69
-312 0 -181 3 -220 16 -245 26 -46 74 -92 116 -110 58 -25 68 -31 68 -41 3
-38 21 -122 42 -189 90 -286 268 -507 525 -652 52 -29 68 -43 68 -60 0 -18 -7
-23 -37 -28 -270 -42 -409 -94 -506 -191 -45 -46 -84 -122 -93 -186 -6 -48 -6
-48 -80 -83 -177 -85 -388 -260 -514 -425 -196 -259 -290 -548 -290 -897 l0
-153 2000 0 2001 0 -2 157 c-2 293 -61 522 -190 746 -134 230 -378 458 -611
570 -75 36 -76 37 -83 83 -16 107 -78 194 -185 258 -91 56 -206 89 -412 121
-32 5 -38 10 -38 30 0 15 7 26 20 30 79 25 311 218 398 331 100 130 177 318
218 532 3 13 12 25 22 28 40 12 88 41 115 69 60 63 62 71 62 305 0 186 -2 219
-18 247 -26 49 -86 102 -130 115 -21 6 -41 17 -42 22 -2 6 -6 74 -8 151 -8
231 -64 405 -193 596 l-72 106 27 16 c35 21 86 64 134 112 162 164 202 395
105 615 -29 66 -99 168 -120 173 -12 3 -44 -18 -96 -63z"/>
</g>
</svg>
